<?xml version="1.0" encoding="UTF-8" standalone="no"?>
<svg
   xmlns:dc="http://purl.org/dc/elements/1.1/"
   xmlns:cc="http://creativecommons.org/ns#"
   xmlns:rdf="http://www.w3.org/1999/02/22-rdf-syntax-ns#"
   xmlns:svg="http://www.w3.org/2000/svg"
   xmlns="http://www.w3.org/2000/svg"
   xmlns:sodipodi="http://sodipodi.sourceforge.net/DTD/sodipodi-0.dtd"
   xmlns:inkscape="http://www.inkscape.org/namespaces/inkscape"
   width="224"
   height="64"
   viewBox="0 0 59.266666 16.933334"
   version="1.1"
   id="svg841"
   inkscape:version="1.0.1 (3bc2e813f5, 2020-09-07)"
   sodipodi:docname="healthbar_health.svg">
  <defs
     id="defs835">
    <filter
       inkscape:collect="always"
       style="color-interpolation-filters:sRGB"
       id="filter5916"
       x="-1.1880306e-06"
       width="1.0000024"
       y="-1.212213e-06"
       height="1.0000024">
      <feGaussianBlur
         inkscape:collect="always"
         stdDeviation="8.1806613e-06"
         id="feGaussianBlur5918" />
    </filter>
  </defs>
  <sodipodi:namedview
     id="base"
     pagecolor="#ffffff"
     bordercolor="#666666"
     borderopacity="1.0"
     inkscape:pageopacity="0.0"
     inkscape:pageshadow="2"
     inkscape:zoom="1.979899"
     inkscape:cx="30.262339"
     inkscape:cy="42.086339"
     inkscape:document-units="px"
     inkscape:current-layer="g5937"
     inkscape:document-rotation="0"
     showgrid="false"
     units="px"
     inkscape:window-width="1620"
     inkscape:window-height="1018"
     inkscape:window-x="-6"
     inkscape:window-y="-6"
     inkscape:window-maximized="1"
     inkscape:snap-global="false" />
  <metadata
     id="metadata838">
    <rdf:RDF>
      <cc:Work
         rdf:about="">
        <dc:format>image/svg+xml</dc:format>
        <dc:type
           rdf:resource="http://purl.org/dc/dcmitype/StillImage" />
        <dc:title></dc:title>
      </cc:Work>
    </rdf:RDF>
  </metadata>
  <g
     inkscape:label="Layer 1"
     inkscape:groupmode="layer"
     id="layer1"
     style="display:none;filter:url(#filter5916)">
    <g
       id="g1415"
       transform="matrix(6.7762538,0,0,6.7762538,-5.8223021,-13.048961)"
       style="fill:#ff2a7f">
      <circle
         style="fill:#ff2a7f;stroke:none;stroke-width:1.133"
         id="path1406"
         cx="1.5159193"
         cy="2.7770975"
         r="0.61388475" />
      <circle
         style="fill:#ff2a7f;stroke:none;stroke-width:1.133"
         id="circle1408"
         cx="2.7269845"
         cy="2.7854495"
         r="0.61388475" />
      <path
         style="fill:#ff2a7f;fill-opacity:1;stroke:none;stroke-width:0.264583px;stroke-linecap:butt;stroke-linejoin:miter;stroke-opacity:1"
         d="M 1.0356694,3.1654733 2.1381561,4.2930166 3.2205168,3.1541047 2.1214518,2.7729213 Z"
         id="path1410"
         sodipodi:nodetypes="ccccc" />
    </g>
    <circle
       style="fill:#ff5c9d;fill-opacity:1;stroke-width:1.63832;stroke-linecap:round"
       id="path5888"
       cx="4.3932424"
       cy="5.7629995"
       r="3.1237128" />
    <circle
       style="fill:#ff5c9d;fill-opacity:1;stroke-width:1.63832;stroke-linecap:round"
       id="circle5890"
       cx="4.3932424"
       cy="5.7629995"
       r="3.1237128" />
  </g>
  <g
     inkscape:label="Layer 1 copy"
     inkscape:groupmode="layer"
     id="g5937"
     style="filter:url(#filter5916)">
    <rect
       style="fill:#ff2a7f;fill-opacity:1;stroke:none;stroke-width:1.22288;stroke-linecap:round;stroke-opacity:1"
       id="rect7120"
       width="13.25291"
       height="4.6783113"
       x="5.6459002"
       y="27.580519" />
    <path
       id="rect7105"
       style="fill:#ff2a7f;fill-opacity:1;stroke:none;stroke-width:1.56303;stroke-linecap:round;stroke-opacity:1"
       d="m 11.108521,25.740648 v 6.350001 h 53.378137 a 3.1750001,3.1750001 0 0 0 0.138494,0.0031 3.1750001,3.1750001 0 0 0 3.175,-3.175001 3.1750001,3.1750001 0 0 0 -3.175,-3.175 3.1750001,3.1750001 0 0 0 -0.03876,5.17e-4 v -0.0036 z" />
    <path
       id="rect7109"
       style="fill:#ff5c9d;fill-opacity:1;stroke:none;stroke-width:0.804931;stroke-linecap:round;stroke-opacity:1"
       d="m 11.108521,25.740648 v 4.715992 h 56.29424 a 3.1750001,3.1750001 0 0 0 0.397391,-1.537891 3.1750001,3.1750001 0 0 0 -3.175,-3.175 3.1750001,3.1750001 0 0 0 -0.03876,5.17e-4 v -0.0036 z" />
    <rect
       style="fill:#ff5c9d;fill-opacity:1;stroke:none;stroke-width:1.22288;stroke-linecap:round;stroke-opacity:1"
       id="rect7118"
       width="13.25291"
       height="4.6783113"
       x="5.7127175"
       y="25.910086" />
    <path
       style="fill:#ff5c9d;fill-opacity:1;stroke:none;stroke-width:1.32292;stroke-linecap:round;stroke-opacity:1"
       d="m 65.036532,25.754397 -3.807865,-2.192358 -4.425007,1.935569 -3.473352,-2.914206 -4.241752,2.953346 -4.191145,-4.037941 -3.468605,3.971124 -3.807438,-3.829383 -4.157738,3.96875 -3.685268,-3.543527 -3.935341,3.387947 -3.860419,-2.5375 -3.921502,2.504092 -3.02381,-0.188988 -4.630209,0.47247 -3.7797618,0.188988"
       id="path7122"
       sodipodi:nodetypes="cccccccccccccccc" />
    <circle
       style="fill:#ff0000;fill-opacity:1;stroke:none;stroke-width:1.10572;stroke-linecap:round;stroke-opacity:1"
       id="path7697"
       cx="53.54224"
       cy="7.6067696"
       r="1.3229167" />
    <rect
       style="fill:#ff0000;fill-opacity:1;stroke:none;stroke-width:1.1601;stroke-linecap:round;stroke-opacity:1"
       id="rect8896"
       width="53.565071"
       height="2.6458335"
       x="-0.053723641"
       y="6.2518654" />
  </g>
  <g
     inkscape:groupmode="layer"
     id="layer4"
     inkscape:label="Layer 2"
     style="display:none"
     sodipodi:insensitive="true">
    <path
       style="color:#000000;font-style:normal;font-variant:normal;font-weight:normal;font-stretch:normal;font-size:medium;line-height:normal;font-family:sans-serif;font-variant-ligatures:normal;font-variant-position:normal;font-variant-caps:normal;font-variant-numeric:normal;font-variant-alternates:normal;font-variant-east-asian:normal;font-feature-settings:normal;font-variation-settings:normal;text-indent:0;text-align:start;text-decoration:none;text-decoration-line:none;text-decoration-style:solid;text-decoration-color:#000000;letter-spacing:normal;word-spacing:normal;text-transform:none;writing-mode:lr-tb;direction:ltr;text-orientation:mixed;dominant-baseline:auto;baseline-shift:baseline;text-anchor:start;white-space:normal;shape-padding:0;shape-margin:0;inline-size:0;clip-rule:nonzero;display:inline;overflow:visible;visibility:visible;opacity:1;isolation:auto;mix-blend-mode:normal;color-interpolation:sRGB;color-interpolation-filters:linearRGB;solid-color:#000000;solid-opacity:1;vector-effect:none;fill:#ff2a7f;fill-opacity:1;fill-rule:nonzero;stroke:none;stroke-width:1.32292;stroke-linecap:round;stroke-linejoin:miter;stroke-miterlimit:4;stroke-dasharray:none;stroke-dashoffset:0;stroke-opacity:1;filter:url(#filter5916);color-rendering:auto;image-rendering:auto;shape-rendering:auto;text-rendering:auto;enable-background:accumulate;stop-color:#000000;stop-opacity:1"
       d="m 4.8769531,10.363281 c -0.026694,-0.0013 -0.053417,9.1e-5 -0.080078,0.002 -0.3646615,0.02611 -0.6399217,0.34241 -0.6132812,0.707032 0,0 1.0483479,2.460071 0.2246092,3.074171 C 3.7031524,14.672102 2.7259834,12.813686 1.9414062,13.210938 1.1209707,13.626346 1.203125,15.869141 1.203125,15.869141 0.83064725,16.740749 1.9822612,14.932211 2.5351562,14.851562 3.7154884,14.679391 4.9245538,16.83405 5.8808594,16.121094 7.2593633,15.093376 5.5039062,10.976562 5.5039062,10.976562 5.4794721,10.643094 5.2109205,10.379534 4.8769531,10.363281 Z"
       id="path5910"
       sodipodi:nodetypes="ssssscssss" />
    <path
       style="color:#000000;font-style:normal;font-variant:normal;font-weight:normal;font-stretch:normal;font-size:medium;line-height:normal;font-family:sans-serif;font-variant-ligatures:normal;font-variant-position:normal;font-variant-caps:normal;font-variant-numeric:normal;font-variant-alternates:normal;font-variant-east-asian:normal;font-feature-settings:normal;font-variation-settings:normal;text-indent:0;text-align:start;text-decoration:none;text-decoration-line:none;text-decoration-style:solid;text-decoration-color:#000000;letter-spacing:normal;word-spacing:normal;text-transform:none;writing-mode:lr-tb;direction:ltr;text-orientation:mixed;dominant-baseline:auto;baseline-shift:baseline;text-anchor:start;white-space:normal;shape-padding:0;shape-margin:0;inline-size:0;clip-rule:nonzero;display:inline;overflow:visible;visibility:visible;opacity:1;isolation:auto;mix-blend-mode:normal;color-interpolation:sRGB;color-interpolation-filters:linearRGB;solid-color:#000000;solid-opacity:1;vector-effect:none;fill:#ff2a7f;fill-opacity:1;fill-rule:nonzero;stroke:none;stroke-width:1.32292;stroke-linecap:round;stroke-linejoin:miter;stroke-miterlimit:4;stroke-dasharray:none;stroke-dashoffset:0;stroke-opacity:1;filter:url(#filter5916);color-rendering:auto;image-rendering:auto;shape-rendering:auto;text-rendering:auto;enable-background:accumulate;stop-color:#000000;stop-opacity:1"
       d="m 11.275391,10.330078 c -0.338387,-0.0083 -0.628015,0.240536 -0.671875,0.576172 -0.04738,0.362539 0.207657,0.695712 0.570312,0.742188 0,0 2.364035,-0.425387 2.941406,0.376953 0.656728,0.912617 -1.386859,2.453975 -0.65625,3.308593 0.544048,0.636392 2.509766,-0.09961 2.509766,-0.09961 0.940498,0.109814 -0.828131,-0.482138 -0.962891,-0.900391 -0.358629,-1.113073 1.364824,-2.492298 0.681641,-3.441406 -0.852799,-1.1847461 -4.321096,-0.553508 -4.34375,-0.55664 -0.02267,-0.0031 -0.04548,-0.0053 -0.06836,-0.0059 z"
       id="path5906"
       sodipodi:nodetypes="ssssscssss" />
    <path
       style="color:#000000;font-style:normal;font-variant:normal;font-weight:normal;font-stretch:normal;font-size:medium;line-height:normal;font-family:sans-serif;font-variant-ligatures:normal;font-variant-position:normal;font-variant-caps:normal;font-variant-numeric:normal;font-variant-alternates:normal;font-variant-east-asian:normal;font-feature-settings:normal;font-variation-settings:normal;text-indent:0;text-align:start;text-decoration:none;text-decoration-line:none;text-decoration-style:solid;text-decoration-color:#000000;letter-spacing:normal;word-spacing:normal;text-transform:none;writing-mode:lr-tb;direction:ltr;text-orientation:mixed;dominant-baseline:auto;baseline-shift:baseline;text-anchor:start;white-space:normal;shape-padding:0;shape-margin:0;inline-size:0;clip-rule:nonzero;display:inline;overflow:visible;visibility:visible;opacity:1;isolation:auto;mix-blend-mode:normal;color-interpolation:sRGB;color-interpolation-filters:linearRGB;solid-color:#000000;solid-opacity:1;vector-effect:none;fill:#ff2a7f;fill-opacity:1;fill-rule:nonzero;stroke:none;stroke-width:1.32292;stroke-linecap:round;stroke-linejoin:miter;stroke-miterlimit:4;stroke-dasharray:none;stroke-dashoffset:0;stroke-opacity:1;filter:url(#filter5916);color-rendering:auto;image-rendering:auto;shape-rendering:auto;text-rendering:auto;enable-background:accumulate;stop-color:#000000;stop-opacity:1"
       d="M 9.5800781,0.17382812 C 7.919347,-0.33861889 6.2279246,1.20134 4.4941406,1.3222656 3.3399846,1.4027641 1.0351563,1.0351562 1.0351563,1.0351562 0.10079342,0.87943907 3.1999165,2.5439065 4.4589844,2.6875 6.0446953,2.8683463 7.603694,1.1608465 9.1289062,1.6308594 c 0.9561358,0.2946449 2.0468748,2.1953125 2.0468748,2.1953125 0.249606,0.2672137 0.668666,0.2812116 0.935547,0.03125 0.265924,-0.2494068 0.279901,-0.6669627 0.03125,-0.9335938 0,0 -1.365253,-2.38056908 -2.5624999,-2.74999998 z"
       id="path5902"
       sodipodi:nodetypes="sscsscccs" />
    <path
       style="color:#000000;font-style:normal;font-variant:normal;font-weight:normal;font-stretch:normal;font-size:medium;line-height:normal;font-family:sans-serif;font-variant-ligatures:normal;font-variant-position:normal;font-variant-caps:normal;font-variant-numeric:normal;font-variant-alternates:normal;font-variant-east-asian:normal;font-feature-settings:normal;font-variation-settings:normal;text-indent:0;text-align:start;text-decoration:none;text-decoration-line:none;text-decoration-style:solid;text-decoration-color:#000000;letter-spacing:normal;word-spacing:normal;text-transform:none;writing-mode:lr-tb;direction:ltr;text-orientation:mixed;dominant-baseline:auto;baseline-shift:baseline;text-anchor:start;white-space:normal;shape-padding:0;shape-margin:0;inline-size:0;clip-rule:nonzero;display:inline;overflow:visible;visibility:visible;opacity:1;isolation:auto;mix-blend-mode:normal;color-interpolation:sRGB;color-interpolation-filters:linearRGB;solid-color:#000000;solid-opacity:1;vector-effect:none;fill:#ff5c9d;fill-opacity:1;fill-rule:nonzero;stroke:none;stroke-width:1.32292;stroke-linecap:round;stroke-linejoin:miter;stroke-miterlimit:4;stroke-dasharray:none;stroke-dashoffset:0;stroke-opacity:1;filter:url(#filter5916);color-rendering:auto;image-rendering:auto;shape-rendering:auto;text-rendering:auto;enable-background:accumulate;stop-color:#000000;stop-opacity:1"
       d="M 11.384766,4.9140625 C 9.5865547,5.0402568 10.508192,9.4014554 8.71875,9.6191406 7.5996143,9.7552832 6.6089491,7.3887067 6.3945312,7.1621094 6.1432754,6.8965817 5.7243923,6.8853365 5.4589844,7.1367188 5.1935765,7.3881011 5.182085,7.8069775 5.4335938,8.0722656 5.6482276,8.2986585 7.27717,12.036603 8.9882812,11.828125 10.831791,11.603516 9.9906665,7.6195766 11.734375,6.9804688 c 0.576802,-0.2114107 1.729493,0.6367187 1.729493,0.6367187 0.776636,0.5411649 -0.945153,-2.7827029 -2.079102,-2.703125 z"
       id="path5914"
       sodipodi:nodetypes="ssssssscs" />
  </g>
</svg>
