<?xml version="1.0" encoding="UTF-8" standalone="no"?>
<svg
   xmlns:dc="http://purl.org/dc/elements/1.1/"
   xmlns:cc="http://creativecommons.org/ns#"
   xmlns:rdf="http://www.w3.org/1999/02/22-rdf-syntax-ns#"
   xmlns:svg="http://www.w3.org/2000/svg"
   xmlns="http://www.w3.org/2000/svg"
   xmlns:sodipodi="http://sodipodi.sourceforge.net/DTD/sodipodi-0.dtd"
   xmlns:inkscape="http://www.inkscape.org/namespaces/inkscape"
   width="64"
   height="64"
   viewBox="0 0 16.933332 16.933334"
   version="1.1"
   id="svg841"
   inkscape:version="1.0.1 (3bc2e813f5, 2020-09-07)"
   sodipodi:docname="heart_cicle.svg">
  <defs
     id="defs835" />
  <sodipodi:namedview
     id="base"
     pagecolor="#ffffff"
     bordercolor="#666666"
     borderopacity="1.0"
     inkscape:pageopacity="0.0"
     inkscape:pageshadow="2"
     inkscape:zoom="3.959798"
     inkscape:cx="10.263701"
     inkscape:cy="48.593268"
     inkscape:document-units="px"
     inkscape:current-layer="layer1"
     inkscape:document-rotation="0"
     showgrid="false"
     units="px"
     inkscape:window-width="1620"
     inkscape:window-height="1018"
     inkscape:window-x="-6"
     inkscape:window-y="-6"
     inkscape:window-maximized="1" />
  <metadata
     id="metadata838">
    <rdf:RDF>
      <cc:Work
         rdf:about="">
        <dc:format>image/svg+xml</dc:format>
        <dc:type
           rdf:resource="http://purl.org/dc/dcmitype/StillImage" />
        <dc:title></dc:title>
      </cc:Work>
    </rdf:RDF>
  </metadata>
  <g
     inkscape:label="Layer 1"
     inkscape:groupmode="layer"
     id="layer1">
    <circle
       style="fill:#ff4f95;fill-opacity:1;stroke:none;stroke-width:0.162771;stroke-linecap:round;stroke-miterlimit:4;stroke-dasharray:none;stroke-opacity:1"
       id="path5111"
       cx="8.4450226"
       cy="8.3228521"
       r="4.1927905" />
    <ellipse
       style="fill:#ff4f95;fill-opacity:0.108434;stroke:none;stroke-width:0.0436756;stroke-linecap:round;stroke-miterlimit:4;stroke-dasharray:none;stroke-opacity:1"
       id="ellipse5117"
       cx="8.428318"
       cy="8.523304"
       rx="1.2027127"
       ry="1.0523738" />
    <path
       style="fill:#ff0d6d;fill-opacity:0.44578302;stroke:none;stroke-width:0.264583px;stroke-linecap:butt;stroke-linejoin:miter;stroke-opacity:1"
       d="m 6.0239955,8.4099701 c 0.4724701,0.2598587 2.078869,2.5749629 2.078869,2.5749629 L 10.606957,8.2209819 c 0,0 0.188988,-1.1103049 -0.472471,-1.7245163 -0.6614577,-0.6142111 -2.5040916,0 -2.4568447,1.0394347 C 7.7248885,8.5753347 7.9847471,6.1893601 6.7563243,6.1421129 5.5279017,6.094866 6.0239955,8.4099701 6.0239955,8.4099701 Z"
       id="path5141" />
    <path
       style="fill:#f73381;fill-opacity:0.44578302;stroke:none;stroke-width:0.160771px;stroke-linecap:butt;stroke-linejoin:miter;stroke-opacity:1"
       d="m 8.4786924,9.9519974 c 0.2230473,0.2387446 0.678037,1.8454156 0.678037,1.8454156 l 2.0597256,-1.034201 c 0,0 0.346534,-0.578755 0.08733,-1.0520471 C 11.044586,9.2378738 9.8297793,9.2105842 9.637321,9.7972118 9.4448629,10.383839 10.103445,9.11089 9.3903587,8.8390862 8.6772724,8.5672828 8.4786924,9.9519974 8.4786924,9.9519974 Z"
       id="path5143" />
    <path
       style="fill:#f1357f;fill-opacity:0.44578302;stroke:none;stroke-width:0.160771px;stroke-linecap:butt;stroke-linejoin:miter;stroke-opacity:1"
       d="M 8.5492622,7.9615054 C 8.8738708,7.9243777 10.435753,8.5150829 10.435753,8.5150829 L 10.83069,6.2443861 c 0,0 -0.258804,-0.622948 -0.793407,-0.6963723 C 9.5026828,5.4745858 8.7576795,6.4345177 9.1145181,6.9383414 9.4713568,7.442165 8.8404593,6.1552701 8.197606,6.5664984 7.5547529,6.9777271 8.5492622,7.9615054 8.5492622,7.9615054 Z"
       id="path5145" />
    <path
       style="fill:#fd2279;fill-opacity:0.44578302;stroke:none;stroke-width:0.160771px;stroke-linecap:butt;stroke-linejoin:miter;stroke-opacity:1"
       d="M 7.527041,10.041321 C 7.4318965,9.7287563 7.7308106,8.0858746 7.7308106,8.0858746 l -2.304684,0.02165 c 0,0 -0.5659638,0.3670541 -0.5416302,0.9061268 0.024329,0.5390704 1.1030257,1.0984566 1.5341187,0.6564946 0.431093,-0.4419626 -0.720699,0.410977 -0.2001321,0.96899 0.5205673,0.558013 1.308558,-0.597815 1.308558,-0.597815 z"
       id="path5147" />
  </g>
</svg>
