<?xml version="1.0" encoding="UTF-8" standalone="no"?>
<svg
   xmlns:dc="http://purl.org/dc/elements/1.1/"
   xmlns:cc="http://creativecommons.org/ns#"
   xmlns:rdf="http://www.w3.org/1999/02/22-rdf-syntax-ns#"
   xmlns:svg="http://www.w3.org/2000/svg"
   xmlns="http://www.w3.org/2000/svg"
   xmlns:sodipodi="http://sodipodi.sourceforge.net/DTD/sodipodi-0.dtd"
   xmlns:inkscape="http://www.inkscape.org/namespaces/inkscape"
   width="210mm"
   height="297mm"
   viewBox="0 0 210 297"
   version="1.1"
   id="svg8"
   inkscape:version="1.0.1 (3bc2e813f5, 2020-09-07)"
   sodipodi:docname="player_forward.svg">
  <defs
     id="defs2" />
  <sodipodi:namedview
     id="base"
     pagecolor="#ffffff"
     bordercolor="#666666"
     borderopacity="1.0"
     inkscape:pageopacity="0.0"
     inkscape:pageshadow="2"
     inkscape:zoom="1.4"
     inkscape:cx="515.69329"
     inkscape:cy="831.61232"
     inkscape:document-units="mm"
     inkscape:current-layer="layer1"
     inkscape:document-rotation="0"
     showgrid="false"
     inkscape:window-width="1620"
     inkscape:window-height="1018"
     inkscape:window-x="-6"
     inkscape:window-y="-6"
     inkscape:window-maximized="1" />
  <metadata
     id="metadata5">
    <rdf:RDF>
      <cc:Work
         rdf:about="">
        <dc:format>image/svg+xml</dc:format>
        <dc:type
           rdf:resource="http://purl.org/dc/dcmitype/StillImage" />
        <dc:title></dc:title>
      </cc:Work>
    </rdf:RDF>
  </metadata>
  <g
     inkscape:label="Layer 1"
     inkscape:groupmode="layer"
     id="layer1">
    <path
       style="fill:#bd4bff;fill-opacity:1;stroke:none;stroke-width:1.19062;stroke-dasharray:7.14375, 7.14375;stroke-opacity:1"
       d="m 96.43117,209.91853 c 2.31511,1.65364 4.54243,7.4986 4.54243,7.4986 0,0 4.44376,-11.07571 4.72725,-11.31195 0.28348,-0.23623 2.74032,2.22062 2.74032,2.22062 0,0 -4.53153,13.7674 -7.56066,12.32844 -1.42441,-0.67664 -3.92684,-5.93273 -4.63555,-6.35795"
       id="path934"
       sodipodi:nodetypes="ccscsc" />
    <path
       style="fill:#bd4bff;fill-opacity:1;stroke:none;stroke-width:1.19062;stroke-dasharray:7.14375, 7.14375;stroke-opacity:1"
       d="m 77.14907,229.23004 c 0.79508,-7.89558 8.13181,-18.65006 8.13181,-18.65006 l 1.06236,5.21454 c 0,0 -5.08368,9.7975 -5.74514,13.76625"
       id="path932"
       sodipodi:nodetypes="cccc" />
    <path
       style="fill:#ff7f2a;fill-opacity:1;stroke:none;stroke-width:1.50311;stroke-dasharray:9.01867, 9.01867;stroke-opacity:1"
       d="m 85.21143,227.59434 c -0.93497,3.4433 -0.31931,21.64783 -0.0873,22.79814 0.0898,0.44487 2.8536,2.62347 5.18316,-0.19524 0.759,-0.91838 1.36426,-14.47001 1.36426,-14.47001 0,0 1.487,14.09642 2.05518,14.73669 2.25072,2.53621 5.18809,0.26445 5.45782,-0.36813 0.66906,-1.56926 -0.92457,-22.95515 -1.66722,-23.45178"
       id="path911"
       sodipodi:nodetypes="csscssc" />
    <path
       style="fill:#ff9955;stroke:none;stroke-width:0.264583px;stroke-linecap:butt;stroke-linejoin:miter;stroke-opacity:1"
       d="m 106.87277,127.66145 c 1.55915,1.13393 4.20498,1.51191 5.33891,0.8977 1.13393,-0.61421 1.79539,-4.48847 1.79539,-4.48847 l 0.28348,4.7247 c 0,0 3.09928,1.25954 4.7247,0.33073 0.9922,-0.56696 -0.18898,-5.57515 -0.18898,-6.37835 0,-0.8032 -1.7009,-2.83482 -4.63021,-2.92931 -2.92932,-0.0945 -6.3311,0.94494 -6.89807,2.26785 -0.56696,1.32292 -0.42522,5.57515 -0.42522,5.57515 z"
       id="path863"
       sodipodi:nodetypes="csccssssc" />
    <path
       style="fill:#9748ff;fill-opacity:1;stroke:none;stroke-width:0.264583px;stroke-linecap:butt;stroke-linejoin:miter;stroke-opacity:1"
       d="m 107.53423,112.44792 c -0.56697,3.87425 -3.49628,8.12649 -0.56697,8.97693 2.92932,0.85045 11.05581,1.03944 11.62277,0.37798 0.56696,-0.66146 1.03944,-9.07143 -0.56696,-11.90625 -1.6064,-2.83482 -7.27604,0.47247 -10.67783,3.02381"
       id="path865" />
    <path
       style="fill:#bd4bff;fill-opacity:1;stroke:none;stroke-width:0.264583px;stroke-linecap:butt;stroke-linejoin:miter;stroke-opacity:1"
       d="m 84.590806,98.822906 c 9.421248,-9.488067 20.452964,-16.439725 30.001004,-16.637527 8.8048,-0.182405 18.41995,6.150093 18.37477,14.165285 -0.046,8.152686 -7.35192,17.525466 -18.17432,17.773416 -10.82441,0.24801 -20.579751,-7.02028 -30.201454,-15.301174 z"
       id="path847"
       sodipodi:nodetypes="csssc" />
    <path
       style="fill:#b22cff;stroke:none;stroke-width:0.264583px;stroke-linecap:butt;stroke-linejoin:miter;stroke-opacity:1;fill-opacity:1"
       d="m 84.590804,98.822906 c 0,0 7.540892,1.435274 13.305028,5.404024 5.764138,3.96875 11.528278,9.63839 17.575888,9.6384 -10.48883,1.22842 -21.979841,-7.40627 -30.880916,-15.042424 z"
       id="path851"
       sodipodi:nodetypes="cscc" />
    <path
       style="fill:#b22cff;fill-opacity:1;stroke:none;stroke-width:0.264583px;stroke-linecap:butt;stroke-linejoin:miter;stroke-opacity:1"
       d="m 119.66189,89.128271 c 0.14174,0.566965 2.03597,13.860739 -9.75205,13.003579 11.7872,1.06377 10.64974,-7.806405 9.75205,-13.003579"
       id="path853"
       sodipodi:nodetypes="ccc" />
    <g
       id="g907"
       transform="translate(-26.997621,18.726034)">
      <path
         style="fill:#ff5d2a;fill-opacity:1;stroke:none;stroke-width:1.17721;stroke-dasharray:7.06329, 7.06329;stroke-opacity:1"
         d="m 126.97175,177.61645 c 2.25311,2.88882 1.14833,8.35693 0.14383,12.14273 0,0 -0.54789,-7.91201 -3.4556,-12.46618"
         id="path887"
         sodipodi:nodetypes="ccc" />
      <path
         style="fill:#ff5d2a;fill-opacity:1;stroke:none;stroke-width:1.17721;stroke-dasharray:7.06329, 7.06329;stroke-opacity:1"
         d="m 126.40556,183.49478 c -0.77676,3.18172 -3.26789,6.23031 -5.72362,9.28165 0,0 2.52326,-6.36691 1.71623,-11.70956"
         id="path885"
         sodipodi:nodetypes="ccc" />
      <path
         style="fill:#ff5d2a;fill-opacity:1;stroke:none;stroke-width:1.19062;stroke-dasharray:7.14375, 7.14375;stroke-opacity:1"
         d="m 108.83531,179.98319 c -0.63555,3.27087 -1.30019,7.6286 1.20714,11.97767 0,0 0.0621,-6.78661 2.50879,-11.60749"
         id="path883"
         sodipodi:nodetypes="ccc" />
      <path
         style="fill:#ff5d2a;fill-opacity:1;stroke:none;stroke-width:1.19062;stroke-dasharray:7.14375, 7.14375;stroke-opacity:1"
         d="m 110.51079,187.52344 c 0.77969,3.18523 3.31365,6.24515 5.81138,9.30766 0,0 -2.55134,-6.37835 -1.70089,-11.71726"
         id="path877"
         sodipodi:nodetypes="ccc" />
      <ellipse
         style="fill:#ffccaa;fill-opacity:1;stroke:none;stroke-width:1.19062;stroke-dasharray:7.14375, 7.14375;stroke-opacity:1"
         id="path869"
         cx="118.4287"
         cy="181.66818"
         rx="6.9925594"
         ry="7.8430057" />
      <path
         style="fill:#ff7f2a;fill-opacity:1;stroke:none;stroke-width:0.264583px;stroke-linecap:butt;stroke-linejoin:miter;stroke-opacity:1"
         d="m 117.07813,178.07403 c -1.51191,3.63802 -2.4096,6.85082 -6.33111,10.63058 -2.78757,-4.15774 -4.77195,-13.98512 4.15774,-14.41034"
         id="path871"
         sodipodi:nodetypes="ccc" />
      <path
         style="fill:#ff7f2a;fill-opacity:1;stroke:none;stroke-width:0.264583px;stroke-linecap:butt;stroke-linejoin:miter;stroke-opacity:1"
         d="m 113.31539,174.05885 c 0.75596,1.27567 4.99116,8.38819 4.99116,8.38819 1.27012,-1.77542 4.24327,-6.27405 4.80355,-8.4044"
         id="path873"
         sodipodi:nodetypes="ccc" />
      <path
         style="fill:#ff7f2a;fill-opacity:1;stroke:none;stroke-width:0.264583px;stroke-linecap:butt;stroke-linejoin:miter;stroke-opacity:1"
         d="m 120.90513,176.51488 c 0.56611,3.93129 2.64499,7.25748 4.48847,10.67783 0,0 6.47284,-8.17374 -0.33073,-12.42597"
         id="path875"
         sodipodi:nodetypes="ccc" />
      <ellipse
         style="fill:#000000;fill-opacity:1;stroke:none;stroke-width:1.19062;stroke-dasharray:7.14375, 7.14375;stroke-opacity:1"
         id="path879"
         cx="116.44029"
         cy="185.46819"
         rx="0.73232883"
         ry="0.8976934" />
      <ellipse
         style="fill:#000000;fill-opacity:1;stroke:none;stroke-width:1.19062;stroke-dasharray:7.14375, 7.14375;stroke-opacity:1"
         id="ellipse881"
         cx="120.55078"
         cy="185.51544"
         rx="0.73232883"
         ry="0.8976934" />
      <path
         style="fill:#ff912a;fill-opacity:1;stroke:none;stroke-width:1.19062;stroke-dasharray:7.14375, 7.14375;stroke-opacity:1"
         d="m 116.86551,171.57756 c -7.51227,0.51972 -5.17355,10.41797 -5.17355,10.41797 -0.55534,-0.43193 3.00559,-8.01992 8.00837,-6.7327"
         id="path889"
         sodipodi:nodetypes="ccc" />
      <path
         style="fill:#ff912a;fill-opacity:1;stroke:none;stroke-width:1.19062;stroke-dasharray:7.14375, 7.14375;stroke-opacity:1"
         d="m 116.86551,171.57756 c 3.28367,-0.85044 10.06362,1.41742 9.04781,6.18936 -2.45685,-2.57496 -6.59096,-2.03161 -7.67765,0.0473"
         id="path891"
         sodipodi:nodetypes="ccc" />
    </g>
    <path
       style="fill:#bd4bff;fill-opacity:1;stroke:none;stroke-width:1.17411;stroke-dasharray:7.0447, 7.0447;stroke-opacity:1"
       d="m 21.481788,199.10956 c -2.44045,0.0188 -3.64882,2.62971 -3.62226,4.10364 0.0352,1.95108 0.0863,8.57173 1.09676,9.87402 0.99003,1.276 4.13214,1.54986 6.41553,1.55224 2.31029,0.002 4.7249,-0.42982 5.81954,-1.54943 1.27041,-1.2994 0.80095,-8.53737 0.75688,-10.08053 -0.0558,-1.9556 -1.43405,-4.03441 -3.58456,-4.12004"
       id="path909"
       sodipodi:nodetypes="csssssc" />
    <path
       style="fill:#000000;fill-opacity:1;stroke:none;stroke-width:1.19062;stroke-dasharray:7.14375, 7.14375;stroke-opacity:1"
       d="m 94.06198,250.83683 c -0.0668,1.82077 0.15035,2.18827 0.58466,2.23838 0.43431,0.0501 4.05072,0.3169 4.94449,-0.18373 0.48634,-0.27243 0.42103,-1.35057 0.30067,-2.40542 -0.0524,-0.45922 -0.4677,-1.10523 -2.2885,-1.1192 -1.32275,-0.0101 -3.4745,0.41761 -3.54132,1.46999 z"
       id="path913"
       sodipodi:nodetypes="sssssss" />
    <path
       style="fill:#000000;fill-opacity:1;stroke:none;stroke-width:1.23183;stroke-dasharray:7.39102, 7.39102;stroke-opacity:1"
       d="m 90.58238,250.88489 c 0.0715,1.82077 -0.16095,2.18827 -0.62585,2.23838 -0.4649,0.0501 -4.33599,0.3169 -5.29269,-0.18373 -0.52059,-0.27243 -0.45069,-1.35057 -0.32185,-2.40542 0.0561,-0.45922 0.50063,-1.10523 2.44967,-1.1192 1.4159,-0.0101 3.71918,0.41761 3.79072,1.46999 z"
       id="path915"
       sodipodi:nodetypes="sssssss" />
    <path
       style="fill:#bd4bff;fill-opacity:1;stroke:none;stroke-width:1.17411;stroke-dasharray:7.0447, 7.0447;stroke-opacity:1"
       d="m 87.95008,209.36241 c -2.44045,0.0188 -3.64885,2.62971 -3.62226,4.10364 0.0129,0.71632 1.36573,6.25981 1.42963,8.58428 0.11015,4.00678 -1.77416,6.14505 -1.13468,6.96922 0.99005,1.27598 5.1344,1.75031 7.41779,1.75269 2.31029,0.002 5.58444,-0.51991 6.35408,-1.88351 0,0 -1.3631,-3.23038 -1.3731,-7.08789 -0.007,-2.83823 1.34318,-7.88437 1.39499,-8.53849 0.15448,-1.95029 -1.43405,-4.03441 -3.58456,-4.12004"
       id="path940"
       sodipodi:nodetypes="csssssssc" />
    <g
       id="g926"
       transform="matrix(1.3108999,-0.27170996,0.27170996,1.3108999,-140.00435,-6.4182205)">
      <path
         style="fill:#7c4d2f;fill-opacity:1;stroke:none;stroke-width:1.19062;stroke-dasharray:7.14375, 7.14375;stroke-opacity:1"
         d="m 116.57242,209.96311 34.18735,-18.39428 2.15927,-5.02612 7.61882,-0.71681 -4.07668,6.95342 -5.21888,-0.40847 -34.19217,18.37441 z"
         id="path917"
         sodipodi:nodetypes="cccccccc" />
      <path
         style="fill:#ff5d2a;fill-opacity:1;stroke:none;stroke-width:1.19062;stroke-dasharray:7.14375, 7.14375;stroke-opacity:1"
         d="m 151.8425,191.39839 1.57021,-3.80859 5.84652,-0.73499 -3.20724,4.97789 z"
         id="path919" />
      <path
         style="fill:#ff7f2a;fill-opacity:1;stroke:none;stroke-width:1.19062;stroke-dasharray:7.14375, 7.14375;stroke-opacity:1"
         d="m 153.41271,187.5898 1.03781,1.58728 4.80871,-2.32227 z"
         id="path921" />
    </g>
    <path
       style="fill:#ffccaa;fill-opacity:1;stroke:none;stroke-width:1.19062;stroke-dasharray:7.14375, 7.14375;stroke-opacity:1"
       d="m 88.25047,206.50302 c 0.50113,0.86863 0.0334,1.83748 -0.30069,2.63929 -0.24717,0.59319 2.37938,1.65577 3.50791,1.64137 1.1029,-0.0141 2.86338,-0.73943 3.37428,-1.64137 0,0 -0.90204,-1.36976 -0.30068,-2.50565"
       id="path893"
       sodipodi:nodetypes="csssc" />
    <ellipse
       style="fill:#ffccaa;fill-opacity:1;stroke:none;stroke-width:1.35601;stroke-dasharray:8.13612, 8.13612;stroke-opacity:1"
       id="path928"
       cx="78.959969"
       cy="230.18239"
       rx="1.9135045"
       ry="1.9607514" />
    <ellipse
       style="fill:#ffccaa;fill-opacity:1;stroke:none;stroke-width:1.35601;stroke-dasharray:8.13612, 8.13612;stroke-opacity:1"
       id="ellipse930"
       cx="107.19723"
       cy="206.47574"
       rx="1.9135045"
       ry="1.9607514" />
    <path
       style="fill:#bd4bff;fill-opacity:1;stroke:none;stroke-width:1.19062;stroke-dasharray:7.14375, 7.14375;stroke-opacity:1"
       d="m 153.50557,208.02865 c 2.31511,1.65364 4.54243,7.4986 4.54243,7.4986 0,0 4.44376,-11.07571 4.72725,-11.31195 0.28348,-0.23623 2.74032,2.22062 2.74032,2.22062 0,0 -4.53153,13.7674 -7.56066,12.32844 -1.42441,-0.67664 -3.92684,-5.93273 -4.63555,-6.35795"
       id="path946"
       sodipodi:nodetypes="ccscsc" />
    <path
       style="fill:#bd4bff;fill-opacity:1;stroke:none;stroke-width:1.19062;stroke-dasharray:7.14375, 7.14375;stroke-opacity:1"
       d="m 134.22347,227.34016 c 0.79508,-7.89558 8.13181,-18.65006 8.13181,-18.65006 l 1.06236,5.21454 c 0,0 -5.08368,9.7975 -5.74514,13.76625"
       id="path948"
       sodipodi:nodetypes="cccc" />
    <path
       style="fill:#ff7f2a;fill-opacity:1;stroke:none;stroke-width:1.50311;stroke-dasharray:9.01867, 9.01867;stroke-opacity:1"
       d="m 142.28583,225.70446 c -0.93497,3.4433 -0.31931,21.64783 -0.0873,22.79814 0.0898,0.44487 2.8536,2.62347 5.18316,-0.19524 0.759,-0.91838 1.36426,-14.47001 1.36426,-14.47001 0,0 0.82554,10.97812 1.39372,11.61839 2.25072,2.53621 5.18809,0.26445 5.45782,-0.36813 0.66906,-1.56926 -0.26311,-19.83685 -1.00576,-20.33348"
       id="path950"
       sodipodi:nodetypes="csscssc" />
    <g
       id="g976"
       transform="translate(30.076784,16.836153)">
      <path
         style="fill:#ff5d2a;fill-opacity:1;stroke:none;stroke-width:1.17721;stroke-dasharray:7.06329, 7.06329;stroke-opacity:1"
         d="m 126.97175,177.61645 c 2.25311,2.88882 1.14833,8.35693 0.14383,12.14273 0,0 -0.54789,-7.91201 -3.4556,-12.46618"
         id="path952"
         sodipodi:nodetypes="ccc" />
      <path
         style="fill:#ff5d2a;fill-opacity:1;stroke:none;stroke-width:1.17721;stroke-dasharray:7.06329, 7.06329;stroke-opacity:1"
         d="m 126.40556,183.49478 c -0.77676,3.18172 -3.26789,6.23031 -5.72362,9.28165 0,0 2.52326,-6.36691 1.71623,-11.70956"
         id="path954"
         sodipodi:nodetypes="ccc" />
      <path
         style="fill:#ff5d2a;fill-opacity:1;stroke:none;stroke-width:1.19062;stroke-dasharray:7.14375, 7.14375;stroke-opacity:1"
         d="m 108.83531,179.98319 c -0.63555,3.27087 -1.30019,7.6286 1.20714,11.97767 0,0 0.0621,-6.78661 2.50879,-11.60749"
         id="path956"
         sodipodi:nodetypes="ccc" />
      <path
         style="fill:#ff5d2a;fill-opacity:1;stroke:none;stroke-width:1.19062;stroke-dasharray:7.14375, 7.14375;stroke-opacity:1"
         d="m 110.51079,187.52344 c 0.77969,3.18523 3.31365,6.24515 5.81138,9.30766 0,0 -2.55134,-6.37835 -1.70089,-11.71726"
         id="path958"
         sodipodi:nodetypes="ccc" />
      <ellipse
         style="fill:#ffccaa;fill-opacity:1;stroke:none;stroke-width:1.19062;stroke-dasharray:7.14375, 7.14375;stroke-opacity:1"
         id="ellipse960"
         cx="118.4287"
         cy="181.66818"
         rx="6.9925594"
         ry="7.8430057" />
      <path
         style="fill:#ff7f2a;fill-opacity:1;stroke:none;stroke-width:0.264583px;stroke-linecap:butt;stroke-linejoin:miter;stroke-opacity:1"
         d="m 117.07813,178.07403 c -1.51191,3.63802 -2.4096,6.85082 -6.33111,10.63058 -2.78757,-4.15774 -4.77195,-13.98512 4.15774,-14.41034"
         id="path962"
         sodipodi:nodetypes="ccc" />
      <path
         style="fill:#ff7f2a;fill-opacity:1;stroke:none;stroke-width:0.264583px;stroke-linecap:butt;stroke-linejoin:miter;stroke-opacity:1"
         d="m 113.31539,174.05885 c 0.75596,1.27567 4.99116,8.38819 4.99116,8.38819 1.27012,-1.77542 4.24327,-6.27405 4.80355,-8.4044"
         id="path964"
         sodipodi:nodetypes="ccc" />
      <path
         style="fill:#ff7f2a;fill-opacity:1;stroke:none;stroke-width:0.264583px;stroke-linecap:butt;stroke-linejoin:miter;stroke-opacity:1"
         d="m 120.90513,176.51488 c 0.56611,3.93129 2.64499,7.25748 4.48847,10.67783 0,0 6.47284,-8.17374 -0.33073,-12.42597"
         id="path966"
         sodipodi:nodetypes="ccc" />
      <ellipse
         style="fill:#000000;fill-opacity:1;stroke:none;stroke-width:1.19062;stroke-dasharray:7.14375, 7.14375;stroke-opacity:1"
         id="ellipse968"
         cx="116.44029"
         cy="185.46819"
         rx="0.73232883"
         ry="0.8976934" />
      <ellipse
         style="fill:#000000;fill-opacity:1;stroke:none;stroke-width:1.19062;stroke-dasharray:7.14375, 7.14375;stroke-opacity:1"
         id="ellipse970"
         cx="120.55078"
         cy="185.51544"
         rx="0.73232883"
         ry="0.8976934" />
      <path
         style="fill:#ff912a;fill-opacity:1;stroke:none;stroke-width:1.19062;stroke-dasharray:7.14375, 7.14375;stroke-opacity:1"
         d="m 116.86551,171.57756 c -7.51227,0.51972 -5.17355,10.41797 -5.17355,10.41797 -0.55534,-0.43193 3.00559,-8.01992 8.00837,-6.7327"
         id="path972"
         sodipodi:nodetypes="ccc" />
      <path
         style="fill:#ff912a;fill-opacity:1;stroke:none;stroke-width:1.19062;stroke-dasharray:7.14375, 7.14375;stroke-opacity:1"
         d="m 116.86551,171.57756 c 3.28367,-0.85044 10.06362,1.41742 9.04781,6.18936 -2.45685,-2.57496 -6.59096,-2.03161 -7.67765,0.0473"
         id="path974"
         sodipodi:nodetypes="ccc" />
    </g>
    <path
       style="fill:#000000;fill-opacity:1;stroke:none;stroke-width:1.19062;stroke-dasharray:7.14375, 7.14375;stroke-opacity:1"
       d="m 150.09695,246.49011 c -0.0668,1.82077 0.15035,2.18827 0.58466,2.23838 0.43431,0.0501 4.05072,0.3169 4.94449,-0.18373 0.48634,-0.27243 0.42103,-1.35057 0.30067,-2.40542 -0.0524,-0.45922 -0.4677,-1.10523 -2.2885,-1.1192 -1.32275,-0.0101 -3.4745,0.41761 -3.54132,1.46999 z"
       id="path978"
       sodipodi:nodetypes="sssssss" />
    <path
       style="fill:#000000;fill-opacity:1;stroke:none;stroke-width:1.23183;stroke-dasharray:7.39102, 7.39102;stroke-opacity:1"
       d="m 147.65678,248.99501 c 0.0715,1.82077 -0.16095,2.18827 -0.62585,2.23838 -0.4649,0.0501 -4.33599,0.3169 -5.29269,-0.18373 -0.52059,-0.27243 -0.45069,-1.35057 -0.32185,-2.40542 0.0561,-0.45922 0.50063,-1.10523 2.44967,-1.1192 1.4159,-0.0101 3.71918,0.41761 3.79072,1.46999 z"
       id="path980"
       sodipodi:nodetypes="sssssss" />
    <path
       style="fill:#bd4bff;fill-opacity:1;stroke:none;stroke-width:1.17411;stroke-dasharray:7.0447, 7.0447;stroke-opacity:1"
       d="m 145.02448,207.47253 c -2.44045,0.0188 -3.64885,2.62971 -3.62226,4.10364 0.0129,0.71632 1.36573,6.25981 1.42963,8.58428 0.11015,4.00678 -1.77416,6.14505 -1.13468,6.96922 0.99005,1.27598 5.1344,1.75031 7.41779,1.75269 2.31029,0.002 5.58444,-0.51991 6.35408,-1.88351 0,0 -1.3631,-3.23038 -1.3731,-7.08789 -0.007,-2.83823 1.34318,-7.88437 1.39499,-8.53849 0.15448,-1.95029 -1.43405,-4.03441 -3.58456,-4.12004"
       id="path982"
       sodipodi:nodetypes="csssssssc" />
    <g
       id="g990"
       transform="matrix(1.3108999,-0.27170996,0.27170996,1.3108999,-82.929945,-8.3081015)">
      <path
         style="fill:#7c4d2f;fill-opacity:1;stroke:none;stroke-width:1.19062;stroke-dasharray:7.14375, 7.14375;stroke-opacity:1"
         d="m 116.57242,209.96311 34.18735,-18.39428 2.15927,-5.02612 7.61882,-0.71681 -4.07668,6.95342 -5.21888,-0.40847 -34.19217,18.37441 z"
         id="path984"
         sodipodi:nodetypes="cccccccc" />
      <path
         style="fill:#ff5d2a;fill-opacity:1;stroke:none;stroke-width:1.19062;stroke-dasharray:7.14375, 7.14375;stroke-opacity:1"
         d="m 151.8425,191.39839 1.57021,-3.80859 5.84652,-0.73499 -3.20724,4.97789 z"
         id="path986" />
      <path
         style="fill:#ff7f2a;fill-opacity:1;stroke:none;stroke-width:1.19062;stroke-dasharray:7.14375, 7.14375;stroke-opacity:1"
         d="m 153.41271,187.5898 1.03781,1.58728 4.80871,-2.32227 z"
         id="path988" />
    </g>
    <path
       style="fill:#ffccaa;fill-opacity:1;stroke:none;stroke-width:1.19062;stroke-dasharray:7.14375, 7.14375;stroke-opacity:1"
       d="m 145.32487,204.61314 c 0.50113,0.86863 0.0334,1.83748 -0.30069,2.63929 -0.24717,0.59319 2.37938,1.65577 3.50791,1.64137 1.1029,-0.0141 2.86338,-0.73943 3.37428,-1.64137 0,0 -0.90204,-1.36976 -0.30068,-2.50565"
       id="path992"
       sodipodi:nodetypes="csssc" />
    <ellipse
       style="fill:#ffccaa;fill-opacity:1;stroke:none;stroke-width:1.35601;stroke-dasharray:8.13612, 8.13612;stroke-opacity:1"
       id="ellipse994"
       cx="136.03438"
       cy="228.29251"
       rx="1.9135045"
       ry="1.9607514" />
    <ellipse
       style="fill:#ffccaa;fill-opacity:1;stroke:none;stroke-width:1.35601;stroke-dasharray:8.13612, 8.13612;stroke-opacity:1"
       id="ellipse996"
       cx="164.27164"
       cy="204.58586"
       rx="1.9135045"
       ry="1.9607514" />
  </g>
</svg>
