<?xml version="1.0" encoding="UTF-8" standalone="no"?>
<svg
   xmlns:dc="http://purl.org/dc/elements/1.1/"
   xmlns:cc="http://creativecommons.org/ns#"
   xmlns:rdf="http://www.w3.org/1999/02/22-rdf-syntax-ns#"
   xmlns:svg="http://www.w3.org/2000/svg"
   xmlns="http://www.w3.org/2000/svg"
   xmlns:sodipodi="http://sodipodi.sourceforge.net/DTD/sodipodi-0.dtd"
   xmlns:inkscape="http://www.inkscape.org/namespaces/inkscape"
   width="210mm"
   height="297mm"
   viewBox="0 0 210 297"
   version="1.1"
   id="svg8"
   inkscape:version="1.0.1 (3bc2e813f5, 2020-09-07)"
   sodipodi:docname="player_base.svg">
  <defs
     id="defs2" />
  <sodipodi:namedview
     id="base"
     pagecolor="#ffffff"
     bordercolor="#666666"
     borderopacity="1.0"
     inkscape:pageopacity="0.0"
     inkscape:pageshadow="2"
     inkscape:zoom="2.8"
     inkscape:cx="414.03779"
     inkscape:cy="375.39958"
     inkscape:document-units="mm"
     inkscape:current-layer="layer1"
     inkscape:document-rotation="0"
     showgrid="false"
     inkscape:window-width="1620"
     inkscape:window-height="1018"
     inkscape:window-x="-6"
     inkscape:window-y="-6"
     inkscape:window-maximized="1" />
  <metadata
     id="metadata5">
    <rdf:RDF>
      <cc:Work
         rdf:about="">
        <dc:format>image/svg+xml</dc:format>
        <dc:type
           rdf:resource="http://purl.org/dc/dcmitype/StillImage" />
        <dc:title></dc:title>
      </cc:Work>
    </rdf:RDF>
  </metadata>
  <g
     inkscape:label="Layer 1"
     inkscape:groupmode="layer"
     id="layer1">
    <path
       style="fill:#ff9955;stroke:none;stroke-width:0.264583px;stroke-linecap:butt;stroke-linejoin:miter;stroke-opacity:1"
       d="m 106.87277,127.66145 c 1.55915,1.13393 4.20498,1.51191 5.33891,0.8977 1.13393,-0.61421 1.79539,-4.48847 1.79539,-4.48847 l 0.28348,4.7247 c 0,0 3.09928,1.25954 4.7247,0.33073 0.9922,-0.56696 -0.18898,-5.57515 -0.18898,-6.37835 0,-0.8032 -1.7009,-2.83482 -4.63021,-2.92931 -2.92932,-0.0945 -6.3311,0.94494 -6.89807,2.26785 -0.56696,1.32292 -0.42522,5.57515 -0.42522,5.57515 z"
       id="path863"
       sodipodi:nodetypes="csccssssc" />
    <path
       style="fill:#9748ff;fill-opacity:1;stroke:none;stroke-width:0.264583px;stroke-linecap:butt;stroke-linejoin:miter;stroke-opacity:1"
       d="m 107.53423,112.44792 c -0.56697,3.87425 -3.49628,8.12649 -0.56697,8.97693 2.92932,0.85045 11.05581,1.03944 11.62277,0.37798 0.56696,-0.66146 1.03944,-9.07143 -0.56696,-11.90625 -1.6064,-2.83482 -7.27604,0.47247 -10.67783,3.02381"
       id="path865" />
    <path
       style="fill:#bd4bff;fill-opacity:1;stroke:none;stroke-width:0.264583px;stroke-linecap:butt;stroke-linejoin:miter;stroke-opacity:1"
       d="m 84.590806,98.822906 c 9.421248,-9.488067 20.452964,-16.439725 30.001004,-16.637527 8.8048,-0.182405 18.41995,6.150093 18.37477,14.165285 -0.046,8.152686 -7.35192,17.525466 -18.17432,17.773416 -10.82441,0.24801 -20.579751,-7.02028 -30.201454,-15.301174 z"
       id="path847"
       sodipodi:nodetypes="csssc" />
    <path
       style="fill:#b22cff;stroke:none;stroke-width:0.264583px;stroke-linecap:butt;stroke-linejoin:miter;stroke-opacity:1;fill-opacity:1"
       d="m 84.590804,98.822906 c 0,0 7.540892,1.435274 13.305028,5.404024 5.764138,3.96875 11.528278,9.63839 17.575888,9.6384 -10.48883,1.22842 -21.979841,-7.40627 -30.880916,-15.042424 z"
       id="path851"
       sodipodi:nodetypes="cscc" />
    <path
       style="fill:#b22cff;fill-opacity:1;stroke:none;stroke-width:0.264583px;stroke-linecap:butt;stroke-linejoin:miter;stroke-opacity:1"
       d="m 119.66189,89.128271 c 0.14174,0.566965 2.03597,13.860739 -9.75205,13.003579 11.7872,1.06377 10.64974,-7.806405 9.75205,-13.003579"
       id="path853"
       sodipodi:nodetypes="ccc" />
  </g>
</svg>
