<?xml version="1.0" encoding="UTF-8" standalone="no"?>
<svg
   xmlns:dc="http://purl.org/dc/elements/1.1/"
   xmlns:cc="http://creativecommons.org/ns#"
   xmlns:rdf="http://www.w3.org/1999/02/22-rdf-syntax-ns#"
   xmlns:svg="http://www.w3.org/2000/svg"
   xmlns="http://www.w3.org/2000/svg"
   xmlns:sodipodi="http://sodipodi.sourceforge.net/DTD/sodipodi-0.dtd"
   xmlns:inkscape="http://www.inkscape.org/namespaces/inkscape"
   width="64"
   height="64"
   viewBox="0 0 16.933333 16.933334"
   version="1.1"
   id="svg6463"
   inkscape:version="1.0.1 (3bc2e813f5, 2020-09-07)"
   sodipodi:docname="skull_hit.svg">
  <defs
     id="defs6457" />
  <sodipodi:namedview
     id="base"
     pagecolor="#ffffff"
     bordercolor="#666666"
     borderopacity="1.0"
     inkscape:pageopacity="0.0"
     inkscape:pageshadow="2"
     inkscape:zoom="3.959798"
     inkscape:cx="14.595233"
     inkscape:cy="22.374344"
     inkscape:document-units="mm"
     inkscape:current-layer="layer1"
     inkscape:document-rotation="0"
     showgrid="false"
     units="px"
     inkscape:window-width="1620"
     inkscape:window-height="1018"
     inkscape:window-x="-6"
     inkscape:window-y="-6"
     inkscape:window-maximized="1"
     inkscape:snap-global="false" />
  <metadata
     id="metadata6460">
    <rdf:RDF>
      <cc:Work
         rdf:about="">
        <dc:format>image/svg+xml</dc:format>
        <dc:type
           rdf:resource="http://purl.org/dc/dcmitype/StillImage" />
        <dc:title></dc:title>
      </cc:Work>
    </rdf:RDF>
  </metadata>
  <g
     inkscape:label="Layer 1"
     inkscape:groupmode="layer"
     id="layer1">
    <path
       style="fill:#e6e6e6;fill-opacity:1;stroke:none;stroke-width:0.299443px;stroke-linecap:butt;stroke-linejoin:miter;stroke-opacity:1"
       d="m 24.50371,0.4010114 c -2.722355,-0.0378105 -6.279052,1.0697519 -5.898435,7.0327496 0.113431,1.7770918 5.066604,4.159152 5.066604,4.159152"
       id="path7044"
       sodipodi:nodetypes="csc" />
    <path
       style="fill:#e6e6e6;fill-opacity:1;stroke:none;stroke-width:0.130977;stroke-linecap:round"
       d="m 21.768599,9.6603768 c -1.065004,1.5909722 -0.0031,6.2912712 4.279125,6.8857462 3.424809,0.475446 5.136206,-1.006898 5.041675,-4.999776 C 30.994864,7.5534698 34.082894,1.1648657 24.50371,0.4010114"
       id="path7046"
       sodipodi:nodetypes="cssc" />
    <circle
       style="fill:#000000;fill-opacity:1;stroke:none;stroke-width:0.149722;stroke-linecap:round"
       id="circle7048"
       cx="25.14784"
       cy="7.482646"
       r="1.4746088" />
    <circle
       style="fill:#000000;fill-opacity:1;stroke:none;stroke-width:0.149722;stroke-linecap:round"
       id="circle7050"
       cx="29.570093"
       cy="7.4559107"
       r="1.4746088" />
    <path
       style="fill:#000000;fill-opacity:1;stroke:none;stroke-width:0.149722;stroke-linecap:round"
       d="M 28.177807,8.9753567 27.21531,11.034032 h 2.192354 z"
       id="path7052" />
    <path
       style="fill:#000000;fill-opacity:1;stroke:none;stroke-width:0.149722;stroke-linecap:round"
       d="M 24.12815,4.6284552 26.855227,6.8742832 27.416685,6.15241 24.475719,4.0135261 Z"
       id="path7054" />
    <path
       style="fill:#000000;fill-opacity:1;stroke:none;stroke-width:0.149722;stroke-linecap:round"
       d="M 27.416685,6.15241 28.004878,6.7406028 30.812163,3.9065819 30.117026,3.3183888 Z"
       id="path7056" />
    <path
       style="fill:#000000;fill-opacity:1;stroke:none;stroke-width:0.149722;stroke-linecap:round"
       d="m 31.105362,10.738737 -0.639777,1.204133 -1.057921,-0.908838 -0.591521,0.937341 -1.115442,-0.789431 -1.025538,0.813086 -1.186247,-1.209806 -0.283707,4.380783 1.124846,-0.808368 0.864987,1.427265 1.233431,-1.347087 0.798866,0.916984 0.855455,-1.309243 0.553286,0.494084 c 0.50363,-0.650091 0.655517,-2.939914 0.469282,-3.800903 z"
       id="path7058"
       sodipodi:nodetypes="ccccccccccccccc" />
    <path
       style="fill:none;fill-opacity:1;stroke:#ff4f95;stroke-width:1.32292;stroke-linecap:round;stroke-miterlimit:4;stroke-dasharray:none;stroke-opacity:1"
       d="M 7.9611235,0.96856402 C 10.677827,1.3937872 12.496837,2.1497396 13.370907,3.6143972 c 0.87407,1.4646579 0.689947,3.914781 0.695851,6.2561777 0.0056,2.2139861 -0.560537,5.3828021 -2.416313,6.0590831 C 10.245791,16.44154 6.9223844,15.870946 5.9301967,14.099183 4.9380092,12.32742 4.8833515,10.74395 4.9778455,10.389597 3.9974698,9.8108206 3.2234637,9.2135771 2.6701522,8.50209 1.5117109,7.012484 2.2214017,4.7399407 2.6222099,3.6143973 3.0212609,2.4937887 5.113767,0.46651109 7.9611235,0.96856402 Z"
       id="path7069"
       sodipodi:nodetypes="csssscssc" />
    <path
       style="fill:#ff4f95;fill-opacity:1;stroke:none;stroke-width:1.32292;stroke-linecap:round;stroke-miterlimit:4;stroke-dasharray:none;stroke-opacity:1"
       d="M 6.1471992,8.6862596 9.6885203,2.9733734 6.6817382,2.9399648 Z"
       id="path7071" />
  </g>
</svg>
